<?xml version="1.0" encoding="UTF-8" standalone="no"?><!DOCTYPE svg PUBLIC "-//W3C//DTD SVG 1.1//EN" "http://www.w3.org/Graphics/SVG/1.1/DTD/svg11.dtd"><svg width="100%" height="100%" viewBox="0 0 32 32" version="1.1" xmlns="http://www.w3.org/2000/svg" xmlns:xlink="http://www.w3.org/1999/xlink" xml:space="preserve" xmlns:serif="http://www.serif.com/" style="fill-rule:evenodd;clip-rule:evenodd;stroke-linejoin:round;stroke-miterlimit:2;"><path d="M0.64,16.64c0.354,-0 0.64,-0.286 0.64,-0.64c-0,-8.117 6.603,-14.72 14.72,-14.72c8.117,-0 14.72,6.603 14.72,14.72c0,8.117 -6.603,14.72 -14.72,14.72c-3.922,-0 -7.628,-1.554 -10.377,-4.294l2.225,0c0.353,0 0.639,-0.286 0.639,-0.64c0,-0.354 -0.286,-0.64 -0.639,-0.64l-3.681,0c-0.038,0 -0.071,0.016 -0.108,0.022c-0.035,0.006 -0.07,0.009 -0.105,0.021c-0.045,0.016 -0.084,0.041 -0.124,0.067c-0.024,0.015 -0.052,0.021 -0.075,0.04c-0.008,0.007 -0.011,0.016 -0.018,0.023c-0.029,0.026 -0.049,0.058 -0.072,0.088c-0.029,0.039 -0.059,0.075 -0.079,0.118c-0.009,0.02 -0.012,0.042 -0.019,0.063c-0.02,0.061 -0.035,0.121 -0.037,0.185c0,0.004 -0.003,0.008 -0.003,0.013l0,3.68c0,0.354 0.287,0.64 0.64,0.64c0.354,0 0.641,-0.286 0.641,-0.64l-0,-2.035c2.979,2.921 6.972,4.569 11.192,4.569c8.822,0 16,-7.178 16,-16c-0,-8.822 -7.178,-16 -16,-16c-8.822,0 -16,7.178 -16,16c0,0.354 0.286,0.64 0.64,0.64Z" style="fill-rule:nonzero;"/><path d="M21.846,17.227c2.556,-0 4.637,-1.665 4.637,-3.711c-0,-2.045 -2.081,-3.709 -4.637,-3.709c-0.103,-0 -0.206,0.003 -0.309,0.008c-0.607,-2.022 -2.883,-3.49 -5.537,-3.49c-2.654,0 -4.931,1.468 -5.538,3.49c-2.661,-0.141 -4.945,1.574 -4.945,3.701c-0,2.046 2.08,3.711 4.637,3.711l11.692,-0Zm-15.049,-3.711c-0,-1.48 1.505,-2.685 3.357,-2.685c0.23,0 0.464,0.02 0.695,0.059c0.177,0.03 0.359,-0.001 0.505,-0.083c0.146,-0.084 0.242,-0.213 0.263,-0.356c0.27,-1.768 2.155,-3.102 4.383,-3.102c2.228,0 4.112,1.334 4.382,3.102c0.022,0.143 0.117,0.272 0.264,0.356c0.146,0.082 0.329,0.113 0.505,0.083c0.231,-0.039 0.465,-0.059 0.695,-0.059c1.851,0 3.356,1.205 3.356,2.685c0,1.481 -1.505,2.686 -3.356,2.686l-11.692,0c-1.852,0 -3.357,-1.205 -3.357,-2.686Z" style="fill-rule:nonzero;"/></svg>