<svg xmlns="http://www.w3.org/2000/svg" xmlns:xlink="http://www.w3.org/1999/xlink" version="1.1" x="0px" y="0px" viewBox="0 0 60 75" style="enable-background:new 0 0 60 60;" xml:space="preserve"><path d="M11.6613159,30.7640991c0.4223633,0,0.7640991-0.3417358,0.7640991-0.7640991  c0-9.690979,7.883667-17.574585,17.574585-17.574585S47.574585,20.309021,47.574585,30  c0,9.690918-7.883667,17.5745239-17.574585,17.5745239c-4.6831665,0-9.1068726-1.8555908-12.3894653-5.1264038h2.6560059  c0.4223633,0,0.7640991-0.3417358,0.7640991-0.7640991s-0.3417358-0.7640991-0.7640991-0.7640991h-4.3936768  c-0.0457764,0-0.0854492,0.0183105-0.1289673,0.026001c-0.0428467,0.007019-0.0844727,0.0109253-0.1259766,0.0253906  c-0.0540771,0.0192871-0.0999146,0.0488892-0.147522,0.0792847c-0.0293579,0.0182495-0.0626831,0.0256958-0.0900269,0.0484009  c-0.0092773,0.0076904-0.0129395,0.0189209-0.0217896,0.0269775c-0.0338745,0.0311279-0.0578613,0.0689697-0.0855713,0.1057739  c-0.0349121,0.0457153-0.0709229,0.0888062-0.0942383,0.1398926c-0.0108643,0.0240479-0.0139771,0.0505981-0.0223389,0.0758667  c-0.024292,0.0723877-0.0424194,0.1442871-0.0443726,0.2202759c-0.0001221,0.0057373-0.0032959,0.010498-0.0032959,0.0162354  v4.3936768c0,0.4223022,0.3417969,0.7640991,0.7640991,0.7640991c0.4223633,0,0.7641602-0.3417969,0.7641602-0.7640991v-2.4297485  C20.1937866,47.1346436,24.9619751,49.1027832,30,49.1027832c10.5333862,0,19.1027832-8.569397,19.1027832-19.1027832  S40.5333862,10.8972168,30,10.8972168S10.8972168,19.4666138,10.8972168,30  C10.8972168,30.4223633,11.2389526,30.7640991,11.6613159,30.7640991z"/><path d="M36.979248,36.6061401c3.0526733,0,5.5360718-2.4841309,5.5360718-5.5368652  c0-3.0526733-2.4833984-5.5360718-5.5360718-5.5360718c-0.1223755,0-0.2454834,0.0045166-0.3679199,0.0126953  C35.8860474,22.5282593,33.1691284,20.3374023,30,20.3374023s-5.8867798,2.1908569-6.6121216,5.2084961  c-3.1765747-0.2111816-5.9039307,2.3483276-5.9039307,5.5233765c0,3.0527344,2.4833374,5.5368652,5.5360718,5.5368652H36.979248z   M19.012146,31.0692749c0-2.2102051,1.7976074-4.0078125,4.0078735-4.0078125c0.2745972,0,0.5537109,0.0298462,0.8297729,0.0887451  c0.2111816,0.0440674,0.4283447-0.0014648,0.6029053-0.1253052c0.1746216-0.1246338,0.2888184-0.3171387,0.314209-0.5298462  C25.0899658,23.8557739,27.3397827,21.8656006,30,21.8656006c2.6594849,0,4.9092407,1.9901733,5.2323608,4.6294556  c0.0253906,0.2127075,0.1395264,0.4052124,0.3141479,0.5298462c0.1746216,0.1238403,0.3932495,0.1693726,0.6029663,0.1253052  c0.276062-0.0588989,0.5551758-0.0887451,0.8297729-0.0887451c2.2102661,0,4.0078125,1.7976074,4.0078125,4.0078125  c0,2.2102661-1.7975464,4.008606-4.0078125,4.008606H23.0200195C20.8097534,35.0778809,19.012146,33.279541,19.012146,31.0692749z"/><text x="0" y="75" fill="#000000" font-size="5px" font-weight="bold" font-family="'Helvetica Neue', Helvetica, Arial-Unicode, Arial, Sans-serif">Created by Vectorstall</text><text x="0" y="80" fill="#000000" font-size="5px" font-weight="bold" font-family="'Helvetica Neue', Helvetica, Arial-Unicode, Arial, Sans-serif">from the Noun Project</text></svg>